<?xml version="1.0" encoding="utf-8"?>
<!-- Generator: Adobe Illustrator 16.0.0, SVG Export Plug-In . SVG Version: 6.00 Build 0)  -->
<!DOCTYPE svg PUBLIC "-//W3C//DTD SVG 1.1//EN" "http://www.w3.org/Graphics/SVG/1.1/DTD/svg11.dtd">
<svg version="1.1" id="Layer_1" xmlns="http://www.w3.org/2000/svg" xmlns:xlink="http://www.w3.org/1999/xlink" x="0px" y="0px"
	 width="250px" height="500px" viewBox="0 0 250 500" enable-background="new 0 0 250 500" xml:space="preserve">
<circle id="head" fill="#FFED00" stroke="#000000" stroke-miterlimit="10" cx="124.7" cy="49.3" r="37.9"/>
<path fill="#F6A000" stroke="#000000" stroke-miterlimit="10" d="M77.5,128.5c0,6.6-5.4,12-12,12h-6c-6.6,0-12-5.4-12-12v-17
	c0-6.6,5.4-12,12-12h6c6.6,0,12,5.4,12,12V128.5z"/>
<path fill="#F6A000" stroke="#000000" stroke-miterlimit="10" d="M201.5,128.5c0,6.6-5.4,12-12,12h-6c-6.6,0-12-5.4-12-12v-17
	c0-6.6,5.4-12,12-12h6c6.6,0,12,5.4,12,12V128.5z"/>
<polygon fill="#009FE3" stroke="#FFED00" stroke-miterlimit="10" points="134.5,87.5 115.5,87.5 77.5,100.9 77.5,116.6 82.7,169.5 
	167.4,169.5 171.5,116.6 171.5,99.3 "/>
<rect x="82.5" y="169.5" fill="#FEC700" stroke="#000000" stroke-miterlimit="10" width="85" height="92"/>
<polygon fill="#BCCF00" stroke="#312783" stroke-miterlimit="10" points="113.7,360.5 66.5,360.5 82.5,261.5 124.5,261.5 "/>
<polygon fill="#BCCF00" stroke="#312783" stroke-miterlimit="10" points="183.5,360.5 143.7,360.5 125.5,261.5 168.5,261.5 "/>
<polygon fill="#312783" stroke="#000000" stroke-miterlimit="10" points="95.5,457.5 66.5,457.5 66.5,360.5 113.5,360.5 "/>
<polygon fill="#312783" stroke="#000000" stroke-miterlimit="10" points="183.5,457.5 154.5,457.5 143.7,360.5 183.5,360.5 "/>
<path fill="#3AAA35" stroke="#E30613" stroke-miterlimit="10" d="M73.5,193c0,6.4-5.1,11.5-11.5,11.5l0,0c-6.4,0-11.5-5.1-11.5-11.5
	v-41c0-6.4,5.1-11.5,11.5-11.5l0,0c6.4,0,11.5,5.1,11.5,11.5V193z"/>
<path fill="#3AAA35" stroke="#E30613" stroke-miterlimit="10" d="M200.5,193c0,6.4-5.1,11.5-11.5,11.5l0,0
	c-6.4,0-11.5-5.1-11.5-11.5v-41c0-6.4,5.1-11.5,11.5-11.5l0,0c6.4,0,11.5,5.1,11.5,11.5V193z"/>
<path fill="#B14191" stroke="#000000" stroke-miterlimit="10" d="M71.5,249.2c0,5.2-4.2,9.3-9.3,9.3h-0.3c-5.2,0-9.3-4.2-9.3-9.3
	v-35.3c0-5.2,4.2-9.3,9.3-9.3h0.3c5.2,0,9.3,4.2,9.3,9.3V249.2z"/>
<path fill="#B14191" stroke="#000000" stroke-miterlimit="10" d="M198.5,249.2c0,5.2-4.2,9.3-9.3,9.3h-0.3c-5.2,0-9.3-4.2-9.3-9.3
	v-35.3c0-5.2,4.2-9.3,9.3-9.3h0.3c5.2,0,9.3,4.2,9.3,9.3V249.2z"/>
<ellipse fill="#FFFFFF" stroke="#000000" stroke-miterlimit="10" cx="110.5" cy="41" rx="15" ry="12"/>
<ellipse fill="#FFFFFF" stroke="#000000" stroke-miterlimit="10" cx="140" cy="49" rx="14.5" ry="8"/>
<line fill="none" stroke="#000000" stroke-miterlimit="10" x1="110.5" y1="68" x2="130.7" y2="66.3"/>
<ellipse fill="#070707" stroke="#000000" stroke-miterlimit="10" cx="100.2" cy="39.3" rx="2.8" ry="4.1"/>
<ellipse fill="#351B1B" stroke="#000000" stroke-miterlimit="10" cx="143" cy="50.6" rx="4.7" ry="5.2"/>
<line fill="none" stroke="#000000" stroke-miterlimit="10" x1="125.5" y1="181" x2="125.5" y2="227"/>
<line fill="none" stroke="#000000" stroke-miterlimit="10" x1="114" y1="192.5" x2="137" y2="192.5"/>
<line fill="none" stroke="#000000" stroke-miterlimit="10" x1="116" y1="211.5" x2="135" y2="211.5"/>
<line fill="none" stroke="#050083" stroke-miterlimit="10" x1="91.8" y1="8.2" x2="127.8" y2="14.2"/>
<line fill="none" stroke="#050083" stroke-miterlimit="10" x1="120.6" y1="16.5" x2="151.7" y2="7"/>
<line fill="none" stroke="#050083" stroke-miterlimit="10" x1="114" y1="2.8" x2="144.2" y2="15.5"/>
<line fill="none" stroke="#050083" stroke-miterlimit="10" x1="111.7" y1="17.5" x2="135.3" y2="4.7"/>
<line fill="none" stroke="#050083" stroke-miterlimit="10" x1="91.8" y1="12.8" x2="147.7" y2="19.1"/>
<line fill="none" stroke="#050083" stroke-miterlimit="10" x1="149.2" y1="11.8" x2="114" y2="16"/>
<line fill="none" stroke="#050083" stroke-miterlimit="10" x1="111.7" y1="7" x2="125" y2="16.6"/>
<line fill="none" stroke="#050083" stroke-miterlimit="10" x1="125.5" y1="2.8" x2="122.7" y2="14.9"/>
<line fill="none" stroke="#050083" stroke-miterlimit="10" x1="140" y1="5.8" x2="118.3" y2="16"/>
<line fill="none" stroke="#050083" stroke-miterlimit="10" x1="159.8" y1="17.5" x2="117" y2="13.9"/>
<line fill="none" stroke="#050083" stroke-miterlimit="10" x1="106.2" y1="5.8" x2="129.1" y2="17.5"/>
<line fill="none" stroke="#050083" stroke-miterlimit="10" x1="143" y1="4.7" x2="119.2" y2="11.8"/>
<line fill="none" stroke="#050083" stroke-miterlimit="10" x1="117.6" y1="5.8" x2="132.8" y2="20.8"/>
</svg>
