<?xml version="1.0" encoding="utf-8"?>
<!-- Generator: Adobe Illustrator 16.0.0, SVG Export Plug-In . SVG Version: 6.00 Build 0)  -->
<!DOCTYPE svg PUBLIC "-//W3C//DTD SVG 1.1//EN" "http://www.w3.org/Graphics/SVG/1.1/DTD/svg11.dtd" [
	<!ENTITY ns_extend "http://ns.adobe.com/Extensibility/1.0/">
	<!ENTITY ns_ai "http://ns.adobe.com/AdobeIllustrator/10.0/">
	<!ENTITY ns_graphs "http://ns.adobe.com/Graphs/1.0/">
	<!ENTITY ns_vars "http://ns.adobe.com/Variables/1.0/">
	<!ENTITY ns_imrep "http://ns.adobe.com/ImageReplacement/1.0/">
	<!ENTITY ns_sfw "http://ns.adobe.com/SaveForWeb/1.0/">
	<!ENTITY ns_custom "http://ns.adobe.com/GenericCustomNamespace/1.0/">
	<!ENTITY ns_adobe_xpath "http://ns.adobe.com/XPath/1.0/">
]>
<svg version="1.1" id="Layer_1" xmlns:x="&ns_extend;" xmlns:i="&ns_ai;" xmlns:graph="&ns_graphs;"
	 xmlns="http://www.w3.org/2000/svg" xmlns:xlink="http://www.w3.org/1999/xlink" x="0px" y="0px" width="250px" height="500px"
	 viewBox="0 0 250 500" enable-background="new 0 0 250 500" xml:space="preserve">
<metadata>
	<sfw  xmlns="&ns_sfw;">
		<slices></slices>
		<sliceSourceBounds  width="155" height="451.6" bottomLeftOrigin="true" y="-463" x="47"></sliceSourceBounds>
	</sfw>
</metadata>
<circle fill="#FFFFFF" stroke="#000000" stroke-miterlimit="10" cx="123.7" cy="58.3" r="37.9"/>
<line fill="none" stroke="#050083" stroke-miterlimit="10" x1="90.8" y1="17.2" x2="126.8" y2="23.2"/>
<line fill="none" stroke="#050083" stroke-miterlimit="10" x1="119.6" y1="25.5" x2="150.7" y2="16"/>
<line fill="none" stroke="#050083" stroke-miterlimit="10" x1="113" y1="11.8" x2="143.2" y2="24.5"/>
<line fill="none" stroke="#050083" stroke-miterlimit="10" x1="110.7" y1="26.5" x2="134.3" y2="13.7"/>
<line fill="none" stroke="#050083" stroke-miterlimit="10" x1="90.8" y1="21.8" x2="146.7" y2="28.1"/>
<line fill="none" stroke="#050083" stroke-miterlimit="10" x1="148.2" y1="20.8" x2="113" y2="25"/>
<line fill="none" stroke="#050083" stroke-miterlimit="10" x1="110.7" y1="16" x2="124" y2="25.6"/>
<line fill="none" stroke="#050083" stroke-miterlimit="10" x1="124.5" y1="11.8" x2="121.7" y2="23.9"/>
<line fill="none" stroke="#050083" stroke-miterlimit="10" x1="139" y1="14.8" x2="117.3" y2="25"/>
<line fill="none" stroke="#050083" stroke-miterlimit="10" x1="158.8" y1="26.5" x2="116" y2="22.9"/>
<line fill="none" stroke="#050083" stroke-miterlimit="10" x1="105.2" y1="14.8" x2="128.1" y2="26.5"/>
<line fill="none" stroke="#050083" stroke-miterlimit="10" x1="142" y1="13.7" x2="118.2" y2="20.8"/>
<line fill="none" stroke="#050083" stroke-miterlimit="10" x1="116.6" y1="14.8" x2="131.8" y2="29.8"/>
<line fill="none" stroke="#050083" stroke-miterlimit="10" x1="125" y1="39.8" x2="90.8" y2="43.1"/>
<line fill="none" stroke="#050083" stroke-miterlimit="10" x1="108.8" y1="29.8" x2="155.3" y2="58.3"/>
<line fill="none" stroke="#050083" stroke-miterlimit="10" x1="85.5" y1="17" x2="85.5" y2="58"/>
<line fill="none" stroke="#050083" stroke-miterlimit="10" x1="113" y1="32.4" x2="150.7" y2="55.4"/>
<line fill="none" stroke="#050083" stroke-miterlimit="10" x1="139" y1="48.3" x2="100.5" y2="58"/>
<line fill="none" stroke="#050083" stroke-miterlimit="10" x1="110.7" y1="39.8" x2="143.2" y2="48.3"/>
<line fill="none" stroke="#050083" stroke-miterlimit="10" x1="119.7" y1="37.5" x2="85.5" y2="64.8"/>
<line fill="none" stroke="#050083" stroke-miterlimit="10" x1="113" y1="32.4" x2="161.6" y2="68.1"/>
<line fill="none" stroke="#050083" stroke-miterlimit="10" x1="100.5" y1="25.5" x2="126.8" y2="32.4"/>
<line fill="none" stroke="#050083" stroke-miterlimit="10" x1="130.6" y1="22.1" x2="161.6" y2="68.1"/>
<line fill="none" stroke="#050083" stroke-miterlimit="10" x1="128.1" y1="26.5" x2="123.1" y2="45.1"/>
<line fill="none" stroke="#050083" stroke-miterlimit="10" x1="128.2" y1="18.2" x2="110.7" y2="39.8"/>
<line fill="none" stroke="#050083" stroke-miterlimit="10" x1="113" y1="32.4" x2="90.8" y2="53.1"/>
<line fill="none" stroke="#050083" stroke-miterlimit="10" x1="100.5" y1="37.5" x2="161.6" y2="78.5"/>
<line fill="none" stroke="#050083" stroke-miterlimit="10" x1="100.5" y1="44" x2="100.5" y2="62"/>
<line fill="none" stroke="#050083" stroke-miterlimit="10" x1="110.7" y1="68.1" x2="146.7" y2="64.8"/>
<line fill="none" stroke="#050083" stroke-miterlimit="10" x1="90.8" y1="73.7" x2="143.2" y2="37.5"/>
<line fill="none" stroke="#050083" stroke-miterlimit="10" x1="125" y1="39.8" x2="161.6" y2="58.3"/>
<line fill="none" stroke="#050083" stroke-miterlimit="10" x1="137.5" y1="22.1" x2="116" y2="78.5"/>
<line fill="none" stroke="#050083" stroke-miterlimit="10" x1="137.3" y1="35.8" x2="173.1" y2="73.7"/>
<line fill="none" stroke="#050083" stroke-miterlimit="10" x1="173.1" y1="24.5" x2="110.7" y2="68.1"/>
<line fill="none" stroke="#050083" stroke-miterlimit="10" x1="71.5" y1="32.4" x2="110.7" y2="51.2"/>
<line fill="none" stroke="#050083" stroke-miterlimit="10" x1="77.1" y1="58.3" x2="110.7" y2="39.8"/>
<line fill="none" stroke="#050083" stroke-miterlimit="10" x1="81.1" y1="23.9" x2="120.8" y2="51.2"/>
<line fill="none" stroke="#050083" stroke-miterlimit="10" x1="81.1" y1="51.2" x2="108.8" y2="29.8"/>
<line fill="none" stroke="#050083" stroke-miterlimit="10" x1="65.8" y1="26.5" x2="108.8" y2="29.8"/>
<line fill="none" stroke="#050083" stroke-miterlimit="10" x1="177.1" y1="28.2" x2="137.3" y2="35.8"/>
<line fill="none" stroke="#050083" stroke-miterlimit="10" x1="173.1" y1="43.9" x2="125" y2="39.8"/>
<path fill="#E84E0F" stroke="#312783" stroke-miterlimit="10" d="M77.5,130.5c0,6.6-5.4,12-12,12h-6c-6.6,0-12-5.4-12-12v-17
	c0-6.6,5.4-12,12-12h6c6.6,0,12,5.4,12,12V130.5z"/>
<path fill="#E84E0F" stroke="#312783" stroke-miterlimit="10" d="M201.5,130.5c0,6.6-5.4,12-12,12h-6c-6.6,0-12-5.4-12-12v-17
	c0-6.6,5.4-12,12-12h6c6.6,0,12,5.4,12,12V130.5z"/>
<polygon fill="#FFFFFF" stroke="#000000" stroke-miterlimit="10" points="170,272.5 79.8,272.5 88.2,215.1 159.8,214.8 "/>
<polygon fill="#FFED00" stroke="#000000" stroke-miterlimit="10" points="115.5,376.5 77.5,376.5 72.5,281.7 123.1,284.9 "/>
<polygon fill="#FFED00" stroke="#000000" stroke-miterlimit="10" points="172.5,374.5 134.5,374.5 125.5,282 176.5,276.9 "/>
<rect x="77.5" y="376.5" fill="#312783" stroke="#BCCF00" stroke-miterlimit="10" width="38" height="86"/>
<rect x="134.5" y="374.5" fill="#312783" stroke="#BCCF00" stroke-miterlimit="10" width="38" height="86"/>
<path fill="#312783" stroke="#3AAA35" stroke-miterlimit="10" d="M73.5,190.6c0,5.7-4.9,10.4-11,10.4l0,0c-6.1,0-11-4.7-11-10.4
	v-40.7c0-5.7,4.9-10.4,11-10.4l0,0c6.1,0,11,4.7,11,10.4V190.6z"/>
<path fill="#B14191" stroke="#F6A000" stroke-miterlimit="10" d="M72.5,235.1c0,8.2-4.3,14.9-10,14.9l0,0c-5.7,0-10-6.7-10-14.9
	v-21.7c0-8.2,4.3-14.9,10-14.9l0,0c5.7,0,10,6.7,10,14.9V235.1z"/>
<path fill="#312783" stroke="#3AAA35" stroke-miterlimit="10" d="M197.5,190.6c0,5.7-4.9,10.4-11,10.4l0,0c-6.1,0-11-4.7-11-10.4
	v-40.7c0-5.7,4.9-10.4,11-10.4l0,0c6.1,0,11,4.7,11,10.4V190.6z"/>
<path fill="#B14191" stroke="#F6A000" stroke-miterlimit="10" d="M196.5,235.1c0,8.2-4.3,14.9-10,14.9l0,0c-5.7,0-10-6.7-10-14.9
	v-21.7c0-8.2,4.3-14.9,10-14.9l0,0c5.7,0,10,6.7,10,14.9V235.1z"/>
<ellipse fill="#E84E0F" stroke="#BCCF00" stroke-width="0.9512" stroke-miterlimit="10" cx="98.6" cy="274.9" rx="26.1" ry="28.9"/>
<ellipse fill="#E84E0F" stroke="#BCCF00" stroke-width="0.9447" stroke-miterlimit="10" cx="150.8" cy="274.9" rx="25.8" ry="28.9"/>
<path fill="none" stroke="#000000" stroke-miterlimit="10" d="M176,133.5"/>
<polygon fill="#FFED00" stroke="#B14191" stroke-miterlimit="10" points="176.5,132.5 72.5,132.5 77.5,113.5 118.5,96.5 130,96.5 
	172.1,113.5 "/>
<polygon fill="#3AAA35" stroke="#FFED00" stroke-miterlimit="10" points="159.8,215.3 88.2,215.9 72.5,133.5 176.5,133.5 "/>
<g>
</g>
<g>
</g>
<g>
</g>
<g>
</g>
<g>
</g>
<g>
</g>
<g>
</g>
<g>
</g>
<g>
</g>
<g>
</g>
<g>
</g>
<g>
</g>
<g>
</g>
<g>
</g>
<g>
</g>
</svg>
