<?xml version="1.0" encoding="utf-8"?>
<!-- Generator: Adobe Illustrator 16.0.0, SVG Export Plug-In . SVG Version: 6.00 Build 0)  -->
<!DOCTYPE svg PUBLIC "-//W3C//DTD SVG 1.1//EN" "http://www.w3.org/Graphics/SVG/1.1/DTD/svg11.dtd">
<svg version="1.1" id="Layer_1" xmlns="http://www.w3.org/2000/svg" xmlns:xlink="http://www.w3.org/1999/xlink" x="0px" y="0px"
	 width="115.8px" height="168.5px" viewBox="0.2 0.2 115.8 168.5" enable-background="new 0.2 0.2 115.8 168.5"
	 xml:space="preserve">
<ellipse fill="#910000" stroke="#000000" stroke-width="0.6503" stroke-miterlimit="10" cx="70.3" cy="76.9" rx="26.3" ry="34.7"/>
<ellipse fill="#FFD90F" stroke="#000000" stroke-width="0.6754" stroke-miterlimit="10" cx="70.4" cy="21.4" rx="22" ry="20.9"/>
<path fill="#61AA21" stroke="#000000" stroke-width="0.6754" stroke-miterlimit="10" d="M54.9,46.4c0,2.2-1.1,4.1-2.6,4.1H24.5
	c-1.4,0-2.6-1.8-2.6-4.1l0,0c0-2.2,1.1-4.1,2.6-4.1h27.8C53.8,42.4,54.9,44.2,54.9,46.4L54.9,46.4z"/>
<path fill="#FFFFFF" stroke="#000000" stroke-width="0.6754" stroke-miterlimit="10" d="M21.2,44.7c-1.7,1.5-3.6,2-4.5,1.1L0.8,28.2
	c-0.8-0.9-0.1-2.8,1.6-4.3l0,0c1.7-1.5,3.6-2,4.5-1.1l15.9,17.6C23.6,41.3,22.9,43.2,21.2,44.7L21.2,44.7z"/>
<path fill="#1742A3" stroke="#000000" stroke-width="0.6754" stroke-miterlimit="10" d="M113.8,29.9c-1.7,1.5-3.6,2-4.5,1.1
	L93.4,13.3c-0.8-0.9-0.1-2.8,1.6-4.3l0,0c1.7-1.5,3.6-2,4.5-1.1l15.9,17.6C116.1,26.4,115.4,28.3,113.8,29.9L113.8,29.9z"/>
<path fill="#FFFFFF" stroke="#000000" stroke-width="0.5091" stroke-miterlimit="10" d="M107.1,28.4c1.6,1.6,2.1,3.6,1.2,4.5
	L90.6,50.5c-0.9,0.9-2.9,0.3-4.5-1.3l0,0c-1.6-1.6-2.1-3.6-1.2-4.5l17.7-17.6C103.5,26.2,105.5,26.8,107.1,28.4L107.1,28.4z"/>
<path fill="#1E1616" stroke="#000000" stroke-width="0.5798" stroke-miterlimit="10" d="M57.5,105.1c1.6,1.6,1.9,3.8,0.7,5l-23,22.8
	c-1.1,1.1-3.4,0.8-5-0.7l0,0c-1.6-1.6-1.9-3.8-0.7-5l23-22.8C53.7,103.2,55.9,103.6,57.5,105.1L57.5,105.1z"/>
<path fill="#FFFFFF" stroke="#000000" stroke-width="0.5335" stroke-miterlimit="10" d="M84.6,103.9c2.2-0.4,4.2,0.4,4.4,1.8l4.7,27
	c0.3,1.4-1.4,2.8-3.6,3.2l0,0c-2.2,0.4-4.2-0.4-4.4-1.8l-4.7-27C80.8,105.7,82.4,104.2,84.6,103.9L84.6,103.9z"/>
<path fill="#FFFFFF" stroke="#000000" stroke-width="0.5335" stroke-miterlimit="10" d="M31.3,133.6c2.2-0.4,4.2,0.4,4.4,1.8l4.7,27
	c0.3,1.4-1.4,2.8-3.6,3.2l0,0c-2.2,0.4-4.2-0.4-4.4-1.8l-4.7-27C27.4,135.4,29.1,133.9,31.3,133.6L31.3,133.6z"/>
<path fill="#7C7B7B" stroke="#000000" stroke-width="0.5335" stroke-miterlimit="10" d="M88.7,136.3c2.2-0.4,4.2,0.4,4.4,1.8l4.7,27
	c0.3,1.4-1.4,2.8-3.6,3.2l0,0c-2.2,0.4-4.2-0.4-4.4-1.8l-4.7-27C84.8,138.1,86.5,136.7,88.7,136.3L88.7,136.3z"/>
<path fill="#FFFFFF" stroke="#000000" stroke-width="0.6754" stroke-miterlimit="10" d="M65.1,17.4c0,4.1-3.3,7.4-7.4,7.4l0,0
	c-4.1,0-7.4-3.3-7.4-7.4v-0.7c0-4.1,3.3-7.4,7.4-7.4l0,0c4.1,0,7.4,3.3,7.4,7.4V17.4z"/>
<path fill="#FFFFFF" stroke="#000000" stroke-width="0.6754" stroke-miterlimit="10" d="M86.7,18.3c0,2.9-2.4,5.3-5.3,5.3h-0.3
	c-2.9,0-5.3-2.4-5.3-5.3v-0.3c0-2.9,2.4-5.3,5.3-5.3h0.3c2.9,0,5.3,2.4,5.3,5.3V18.3z"/>
<path stroke="#000000" stroke-width="0.6754" stroke-miterlimit="10" d="M57.6,15.4c0,1.5-1.2,2.7-2.7,2.7l0,0
	c-1.5,0-2.7-1.2-2.7-2.7l2-1.1c0-0.3-0.6-1-0.5-1.4c0.4-0.9,0-0.9,1.1-0.9l0,0c1.5,0,2.7,1.2,2.7,2.7V15.4z"/>
<path stroke="#000000" stroke-width="0.6754" stroke-miterlimit="10" d="M86,19.5c0,1.4-1.1,2.6-2.6,2.6h-0.1
	c-1.4,0-2.6-1.1-2.6-2.6v-0.2c0-1.4,1.1-2.6,2.6-2.6h0.2c0.6,0,1.2,0.2,1.6,0.6c0.3,0.3-1.1,1.1,0.7,1c0.3,0,0.2,0.7,0.2,1V19.5z"/>
<line fill="none" stroke="#000000" stroke-width="2.6754" stroke-miterlimit="10" x1="65.1" y1="31.4" x2="76.2" y2="34.3"/>
</svg>
