<?xml version="1.0" encoding="utf-8"?>
<!-- Generator: Adobe Illustrator 16.0.0, SVG Export Plug-In . SVG Version: 6.00 Build 0)  -->
<!DOCTYPE svg PUBLIC "-//W3C//DTD SVG 1.1//EN" "http://www.w3.org/Graphics/SVG/1.1/DTD/svg11.dtd">
<svg version="1.1" id="Layer_1" xmlns="http://www.w3.org/2000/svg" xmlns:xlink="http://www.w3.org/1999/xlink" x="0px" y="0px"
	 width="171.5px" height="249.5px" viewBox="0 0 171.5 249.5" enable-background="new 0 0 171.5 249.5" xml:space="preserve">
<ellipse fill="#910000" stroke="#000000" stroke-width="0.9629" stroke-miterlimit="10" cx="103.8" cy="113.7" rx="39" ry="51.4"/>
<ellipse fill="#FFD90F" stroke="#000000" stroke-miterlimit="10" cx="104" cy="31.4" rx="32.6" ry="30.9"/>
<path fill="#61AA21" stroke="#000000" stroke-miterlimit="10" d="M81.1,68.5c0,3.3-1.7,6-3.8,6H36.1c-2.1,0-3.8-2.7-3.8-6l0,0
	c0-3.3,1.7-6,3.8-6h41.2C79.4,62.5,81.1,65.2,81.1,68.5L81.1,68.5z"/>
<path fill="#FFFFFF" stroke="#000000" stroke-miterlimit="10" d="M31.2,66c-2.5,2.2-5.4,2.9-6.6,1.6L1,41.5
	c-1.2-1.3-0.2-4.2,2.3-6.4l0,0c2.5-2.2,5.4-2.9,6.6-1.6l23.6,26.1C34.7,60.9,33.7,63.7,31.2,66L31.2,66z"/>
<path fill="#1742A3" stroke="#000000" stroke-miterlimit="10" d="M168.2,44c-2.5,2.2-5.4,2.9-6.6,1.6L138,19.5
	c-1.2-1.3-0.2-4.2,2.3-6.4l0,0c2.5-2.2,5.4-2.9,6.6-1.6l23.6,26.1C171.7,38.9,170.7,41.7,168.2,44L168.2,44z"/>
<path fill="#FFFFFF" stroke="#000000" stroke-width="0.7538" stroke-miterlimit="10" d="M158.3,41.8c2.3,2.4,3.1,5.3,1.8,6.7
	l-26.2,26c-1.3,1.3-4.3,0.5-6.6-1.9l0,0c-2.3-2.4-3.1-5.3-1.8-6.7l26.2-26C153,38.6,156,39.5,158.3,41.8L158.3,41.8z"/>
<path fill="#1E1616" stroke="#000000" stroke-width="0.8585" stroke-miterlimit="10" d="M84.9,155.4c2.3,2.4,2.8,5.7,1.1,7.4
	l-34,33.7c-1.7,1.7-5,1.2-7.4-1.1l0,0c-2.3-2.4-2.8-5.7-1.1-7.4l34-33.7C79.3,152.5,82.6,153.1,84.9,155.4L84.9,155.4z"/>
<path fill="#FFFFFF" stroke="#000000" stroke-width="0.79" stroke-miterlimit="10" d="M125.1,153.6c3.3-0.6,6.2,0.6,6.5,2.7l6.9,40
	c0.4,2-2,4.1-5.3,4.7l0,0c-3.3,0.6-6.2-0.6-6.5-2.7l-6.9-40C119.4,156.2,121.8,154.1,125.1,153.6L125.1,153.6z"/>
<path fill="#FFFFFF" stroke="#000000" stroke-width="0.79" stroke-miterlimit="10" d="M46.1,197.6c3.3-0.6,6.2,0.6,6.5,2.7l6.9,40
	c0.4,2-2,4.1-5.3,4.7l0,0c-3.3,0.6-6.2-0.6-6.5-2.7l-6.9-40C40.4,200.2,42.8,198.1,46.1,197.6L46.1,197.6z"/>
<path fill="#7C7B7B" stroke="#000000" stroke-width="0.79" stroke-miterlimit="10" d="M131.1,201.6c3.3-0.6,6.2,0.6,6.5,2.7l6.9,40
	c0.4,2-2,4.1-5.3,4.7l0,0c-3.3,0.6-6.2-0.6-6.5-2.7l-6.9-40C125.4,204.2,127.8,202.1,131.1,201.6L131.1,201.6z"/>
<path fill="#FFFFFF" stroke="#000000" stroke-miterlimit="10" d="M96.1,25.5c0,6.1-4.9,11-11,11l0,0c-6.1,0-11-4.9-11-11v-1
	c0-6.1,4.9-11,11-11l0,0c6.1,0,11,4.9,11,11V25.5z"/>
<path fill="#FFFFFF" stroke="#000000" stroke-miterlimit="10" d="M128.1,26.8c0,4.3-3.5,7.8-7.8,7.8h-0.5c-4.3,0-7.8-3.5-7.8-7.8
	v-0.5c0-4.3,3.5-7.8,7.8-7.8h0.5c4.3,0,7.8,3.5,7.8,7.8V26.8z"/>
<path stroke="#000000" stroke-miterlimit="10" d="M85.1,22.5c0,2.2-1.8,4-4,4l0,0c-2.2,0-4-1.8-4-4l3-1.6c0-0.5-0.9-1.5-0.7-2
	c0.6-1.4,0-1.4,1.7-1.4l0,0c2.2,0,4,1.8,4,4V22.5z"/>
<path stroke="#000000" stroke-miterlimit="10" d="M127.1,28.6c0,2.1-1.7,3.9-3.9,3.9H123c-2.1,0-3.9-1.7-3.9-3.9v-0.3
	c0-2.1,1.7-3.9,3.9-3.9h0.3c0.9,0,1.8,0.3,2.4,0.9c0.5,0.4-1.6,1.7,1.1,1.5c0.5,0,0.3,1,0.3,1.5V28.6z"/>
<line fill="none" stroke="#000000" stroke-miterlimit="10" x1="96.1" y1="46.3" x2="112.6" y2="50.5"/>
<g>
</g>
<g>
</g>
<g>
</g>
<g>
</g>
<g>
</g>
<g>
</g>
<g>
</g>
<g>
</g>
<g>
</g>
<g>
</g>
<g>
</g>
<g>
</g>
<g>
</g>
<g>
</g>
<g>
</g>
</svg>
